{
	"scenes":[{
		"nodes":[0]
	}],
	"asset":{
		"version":"2.0",
		"generator":"Created using the official Cinema 4D glTF Exporter 1.000x284978"
	},
	"nodes":[{
		"name":"Object003_1",
		"translation":[-4.2075886726379398,
		4.384191989898682,
		-2.8497135639190676],
		"rotation":[4.329780301713277e-17,
		0.7071067690849304,
		0.7071067690849304,
		-4.329780301713277e-17],
		"scale":[1.0,
		-1.0,
		1.0],
		"children":[1]
	},
	{
		"name":"Object003_1",
		"mesh":0
	}],
	"meshes":[{
		"name":"Object003_1",
		"primitives":[{
			"attributes":{
				"POSITION":1,
				"NORMAL":2,
				"TEXCOORD_0":3
			},
			"indices":0,
			"material":0
		}]
	}],
	"accessors":[{
		"bufferView":0,
		"byteOffset":0,
		"type":"SCALAR",
		"componentType":5123,
		"count":2478,
		"min":[0],
		"max":[1083]
	},
	{
		"bufferView":1,
		"byteOffset":0,
		"type":"VEC3",
		"componentType":5126,
		"count":1084,
		"min":[-274.2598876953125,
		-173.0574188232422,
		2.8754293936933144e-30],
		"max":[274.2598876953125,
		150.32345581054688,
		242.5572052001953]
	},
	{
		"bufferView":1,
		"byteOffset":12,
		"type":"VEC3",
		"componentType":5126,
		"count":1084,
		"min":[-1.0,
		-1.0,
		-1.0],
		"max":[1.0,
		1.0,
		1.0]
	},
	{
		"bufferView":1,
		"byteOffset":24,
		"type":"VEC2",
		"componentType":5126,
		"count":1084,
		"min":[0.006119493395090103,
		0.007971704006195069],
		"max":[0.993270754814148,
		0.9939929246902466]
	}],
	"bufferViews":[{
		"buffer":0,
		"byteOffset":0,
		"byteLength":4956,
		"target":34963
	},
	{
		"buffer":0,
		"byteOffset":4956,
		"byteLength":34688,
		"target":34962,
		"byteStride":32
	}],
	"buffers":[{
		"uri":"data:application/octet-stream;base64,",
		"byteLength":39644
	}],
	"images":[{
		"uri":"data:image/jpeg;base64,"
	}],
	"samplers":[{
		"magFilter":9729,
		"minFilter":9729,
		"wrapS":10497,
		"wrapT":10497
	}],
	"textures":[{
		"sampler":0,
		"source":0
	}],
	"materials":[{
		"pbrMetallicRoughness":{
			"baseColorFactor":[0.7164,
			0.5359999999999999,
			0.8,
			1.0],
			"metallicFactor":0.33,
			"roughnessFactor":0.18
		},
		"normalTexture":{
			"index":0,
			"scale":0.8
		},
		"emissiveFactor":[0.0,
		0.0,
		0.0],
		"alphaMode":"OPAQUE",
		"doubleSided":false,
		"name":"Material #2"
	}]
}