{
	"asset":{
		"version":"2.0",
		"generator":"Created using the official Cinema 4D glTF Exporter 1.000x290161"
	},
	"scenes":[{
		"nodes":[0]
	}],
	"nodes":[{
		"name":"Polygon_Reduction",
		"children":[1]
	},
	{
		"name":"Default",
		"children":[2]
	},
	{
		"name":"Default",
		"mesh":0
	}],
	"meshes":[{
		"primitives":[{
			"attributes":{
				"POSITION":1,
				"NORMAL":2,
				"TEXCOORD_0":3
			},
			"indices":0,
			"material":0
		}]
	}],
	"accessors":[{
		"bufferView":0,
		"type":"SCALAR",
		"componentType":5123,
		"count":19467,
		"byteOffset":0,
		"min":[0],
		"max":[11580]
	},
	{
		"bufferView":1,
		"type":"VEC3",
		"componentType":5126,
		"count":11581,
		"byteOffset":0,
		"min":[-2.1202099323272707,
		-7.1344523429870609,
		-0.8234071731567383],
		"max":[2.391345262527466,
		6.359764099121094,
		3.6048269271850588]
	},
	{
		"bufferView":1,
		"type":"VEC3",
		"componentType":5126,
		"count":11581,
		"byteOffset":12,
		"min":[-0.9997813105583191,
		-0.9993438124656677,
		-0.9999688267707825],
		"max":[0.9998750686645508,
		0.9994062781333923,
		0.9999688267707825]
	},
	{
		"bufferView":1,
		"type":"VEC2",
		"componentType":5126,
		"count":11581,
		"byteOffset":24,
		"min":[0.0004309999931138009,
		0.0004349946975708008],
		"max":[0.9995539784431458,
		0.9993699789047241]
	}],
	"bufferViews":[{
		"buffer":0,
		"byteOffset":0,
		"byteLength":38934,
		"target":34963
	},
	{
		"buffer":0,
		"byteOffset":38936,
		"byteLength":370592,
		"target":34962,
		"byteStride":32
	}],
	"buffers":[{
		"uri":"data:application/octet-stream;base64,",
		"byteLength":409528
	}],
	"materials":[{
		"pbrMetallicRoughness":{
			"baseColorFactor":[0.93,
			0.4464,
			0.55924,
			1.0],
			"metallicFactor":1.0,
			"roughnessFactor":0.03
		},
		"emissiveFactor":[0.0,
		0.0,
		0.0],
		"alphaMode":"OPAQUE",
		"doubleSided":true,
		"name":"PBR"
	}]
}